# xmcd
#
# Track frame offsets:
#	150
#	15530
#	28227
#	35099
#	47093
#	59271
#	71630
#	82040
#	92712
#	105346
#	116042
#	130504
#	148299
#	164596
#
# Disc length: 2383
#
# Revision: 1
# Processed by: cddbd v1.5.1PL0 Copyright (c) Steve Scherf et al.
# Submitted via: ExactAudioCopy v0.90b4
# Normalized: r0:DSETVAR1,TDELIM( - )
#
DISCID=c5094d0e
DTITLE=Various Artist - Highwaymen - CD3
DYEAR=2000
DGENRE=Country
TTITLE0=Willie Nelson - Whiskey River (live)
TTITLE1=Johnny Cash - Ring Of Fire (live)
TTITLE2=Waylon Jennings - It's So Easy
TTITLE3=Kris Kristofferson - Jesus Was A Capricorn
TTITLE4=Willie Nelson - Seven Spanish Angels (live)
TTITLE5=Johnny Cash - Folsom Prison Blues (live)
TTITLE6=Waylon Jennings - White Lightning
TTITLE7=Willie Nelson - Blame It On The Times
TTITLE8=Johnny Cash - Jackson (live)
TTITLE9=Waylon Jennings - Dream Baby (How Long Must I Dream)
TTITLE10=Kris Kristofferson - Out Of Mind, Out Of Sight
TTITLE11=Willie Nelson - Red-Headed Stranger (live)
TTITLE12=Johnny Cash - City Of New Orleans (live)
TTITLE13=Waylon Jennings - Love Of The Common People
EXTD=
EXTT0=
EXTT1=
EXTT2=
EXTT3=
EXTT4=
EXTT5=
EXTT6=
EXTT7=
EXTT8=
EXTT9=
EXTT10=
EXTT11=
EXTT12=
EXTT13=
PLAYORDER=
